PathFileType	4	(X/Y/Z)	/Users/itak/Documents/Research/Walk-IL/dataset/trc/00464_00167.trc
DataRate	CameraRate	NumFrames	NumMarkers	Units	OrigDataRate	OrigDataStartFrame	OrigNumFrames
100.000000	100.000000	4	53	mm	100.000000	69	556
Frame#	Time	RPSI			LPSI			L3			STRN			T10			C7			CLAV			RBAK			LBAK			LSHO			LUPA			LAEL			LAOL			LWTS			LWPS			LFRA			LIFD			LHPS			LHTS			RSHO			RUPA			RAEL			RAOL			RWTS			RWPS			RFRA			RIFD			RHTS			RHPS			RBHD			LFHD			RFHD			LBHD			LHIP			RHIP			RASI			LASI			LKNE			LTHI			LANK			LTIP			LTOE			LMT1			LMT5			LHEE			RKNE			RTHI			RANK			RTIP			RTOE			RMT1			RMT5			RHEE			
		X1	Y1	Z1	X2	Y2	Z2	X3	Y3	Z3	X4	Y4	Z4	X5	Y5	Z5	X6	Y6	Z6	X7	Y7	Z7	X8	Y8	Z8	X9	Y9	Z9	X10	Y10	Z10	X11	Y11	Z11	X12	Y12	Z12	X13	Y13	Z13	X14	Y14	Z14	X15	Y15	Z15	X16	Y16	Z16	X17	Y17	Z17	X18	Y18	Z18	X19	Y19	Z19	X20	Y20	Z20	X21	Y21	Z21	X22	Y22	Z22	X23	Y23	Z23	X24	Y24	Z24	X25	Y25	Z25	X26	Y26	Z26	X27	Y27	Z27	X28	Y28	Z28	X29	Y29	Z29	X30	Y30	Z30	X31	Y31	Z31	X32	Y32	Z32	X33	Y33	Z33	X34	Y34	Z34	X35	Y35	Z35	X36	Y36	Z36	X37	Y37	Z37	X38	Y38	Z38	X39	Y39	Z39	X40	Y40	Z40	X41	Y41	Z41	X42	Y42	Z42	X43	Y43	Z43	X44	Y44	Z44	X45	Y45	Z45	X46	Y46	Z46	X47	Y47	Z47	X48	Y48	Z48	X49	Y49	Z49	X50	Y50	Z50	X51	Y51	Z51	X52	Y52	Z52	X53	Y53	Z53	

70	0.6900000000000001	-1216.836059570312	965.487548828125	-459.5499572753906	-1233.713500976562	963.8668212890625	-599.3989868164062	-1212.798217773438	1049.980834960938	-517.97900390625	-955.5070190429688	1259.260498046875	-568.7908325195312	-1237.347412109375	1174.040893554688	-518.7789306640625	-1179.634765625	1444.404174804688	-517.3583374023438	-995.8876342773438	1371.4873046875	-565.921875	-1219.721313476562	1324.26318359375	-413.8184204101562	-1227.789794921875	1394.99560546875	-608.4609985351562	-1144.056762695312	1423.332641601562	-706.9978637695312	-1168.861572265625	1305.152221679688	-801.6105346679688	-1150.695190429688	1091.453002929688	-843.5513916015625	-1214.300659179688	1074.546142578125	-763.9179077148438	-1058.241577148438	891.4674072265625	-821.7508544921875	-1115.025146484375	877.7606201171875	-868.1484375	-1129.6953125	1004.7177734375	-859.0264282226562	-1053.298706054688	723.2490234375	-839.158935546875	-1105.625244140625	800.9907836914062	-875.6678466796875	-1040.497192382812	806.4976196289062	-842.06201171875	-1083.202026367188	1420.8662109375	-370.8465576171875	-1085.35498046875	1358.900756835938	-293.2830200195312	-1045.629516601562	1073.748413085938	-243.9620666503906	-1106.116577148438	1057.47021484375	-269.2233581542969	-958.4425659179688	867.3864135742188	-303.6717224121094	-1013.629089355469	853.4749145507812	-235.3893890380859	-1039.199829101562	1015.735168457031	-234.7400970458984	-954.221435546875	710.7643432617188	-292.4669189453125	-939.1231079101562	769.8759155273438	-291.2276611328125	-996.8270263671875	766.474609375	-239.6488037109375	-1105.514770507812	1645.011474609375	-446.2255554199219	-985.28564453125	1673.77001953125	-612.4133911132812	-974.6232299804688	1673.943969726562	-481.9295349121094	-1135.489624023438	1646.878784179688	-621.1397094726562	-1116.53564453125	860.16357421875	-730.9375610351562	-1088.121337890625	863.3383178710938	-332.1610107421875	-990.221923828125	901.0128173828125	-408.7210388183594	-1006.791687011719	896.1174926757812	-666.632080078125	-1140.84716796875	443.3440856933594	-687.3921508789062	-1106.813232421875	592.6402587890625	-716.1417236328125	-1224.552001953125	39.59552764892578	-658.6365966796875	-1157.182739257812	298.2668151855469	-696.1393432617188	-980.2483520507812	43.47988891601562	-640.4078979492188	-1048.114624023438	51.91179656982422	-598.0740356445312	-1077.020629882812	42.90956115722656	-708.6751708984375	-1252.491333007812	47.53475189208984	-585.4208984375	-1087.685180664062	470.538818359375	-356.1300964355469	-1048.82958984375	728.1861572265625	-323.9225769042969	-1152.105224609375	44.7392692565918	-337.2265319824219	-1090.649169921875	328.5931701660156	-342.7586059570312	-947.5079956054688	47.62050628662109	-421.5290832519531	-1014.6416015625	53.96322631835938	-445.064697265625	-1016.266723632812	47.8338623046875	-336.5471496582031	-1223.709350585938	36.05170059204102	-372.6389770507812	
71	0.7000000000000001	-1216.79150390625	965.4928588867188	-459.6781616210938	-1233.615600585938	963.8844604492188	-599.5447998046875	-1212.71484375	1049.979125976562	-518.0845947265625	-955.373291015625	1259.212280273438	-568.8364868164062	-1237.250610351562	1174.078247070312	-518.8206176757812	-1179.449951171875	1444.41748046875	-517.4000854492188	-995.6709594726562	1371.486450195312	-566.0022583007812	-1219.55029296875	1324.282836914062	-413.8648071289062	-1227.615600585938	1395.021606445312	-608.50732421875	-1143.8857421875	1423.342651367188	-707.0676879882812	-1168.688720703125	1305.123779296875	-801.6649780273438	-1150.5439453125	1091.391723632812	-843.54541015625	-1214.184692382812	1074.512817382812	-763.8851928710938	-1058.19873046875	891.3946533203125	-821.683837890625	-1114.939697265625	877.6932983398438	-868.092041015625	-1129.489013671875	1004.650512695312	-858.95556640625	-1053.13720703125	723.2452392578125	-839.0707397460938	-1105.439086914062	800.8837280273438	-875.5565795898438	-1040.362426757812	806.47412109375	-841.9811401367188	-1083.008056640625	1420.841430664062	-370.9017944335938	-1085.121826171875	1358.8779296875	-293.3431396484375	-1045.248779296875	1073.722534179688	-244.0704040527344	-1105.72998046875	1057.425903320312	-269.3303527832031	-957.996826171875	867.4102172851562	-303.8627319335938	-1013.125244140625	853.49755859375	-235.5292663574219	-1038.811157226562	1015.727966308594	-234.8210144042969	-953.7025756835938	710.8102416992188	-292.6575927734375	-938.6571655273438	769.9116821289062	-291.4284057617188	-996.265625	766.4942626953125	-239.8204193115234	-1105.1591796875	1645.071044921875	-446.2903137207031	-984.947021484375	1673.693481445312	-612.6075439453125	-974.2283935546875	1673.883666992188	-482.118896484375	-1135.297119140625	1646.8818359375	-621.1068725585938	-1116.452758789062	860.0790405273438	-730.9734497070312	-1088.119140625	863.3414306640625	-332.2209777832031	-990.3273315429688	900.9589233398438	-408.8145446777344	-1006.726745605469	896.0965576171875	-666.684326171875	-1140.816040039062	443.3280029296875	-687.4467163085938	-1106.737915039062	592.6483764648438	-716.2100830078125	-1224.546264648438	39.5898323059082	-658.6334838867188	-1157.168579101562	298.2646789550781	-696.1552124023438	-980.2467041015625	43.47800064086914	-640.40966796875	-1048.116455078125	51.91181945800781	-598.0755004882812	-1077.043701171875	42.91890716552734	-708.688232421875	-1252.480102539062	47.55020141601562	-585.4178466796875	-1087.66845703125	470.5525817871094	-356.1880798339844	-1048.902954101562	728.1921997070312	-323.8561096191406	-1152.107055664062	44.74404144287109	-337.2261047363281	-1090.6484375	328.6071166992188	-342.7997436523438	-947.5123901367188	47.61947250366211	-421.5350036621094	-1014.676635742188	53.98179244995117	-445.0384216308594	-1016.262817382812	47.82989120483398	-336.5439758300781	-1223.70751953125	36.05788040161133	-372.65966796875	
72	0.71	-1216.744262695312	965.4984130859375	-459.8152160644531	-1233.516967773438	963.8947143554688	-599.6919555664062	-1212.63525390625	1049.97607421875	-518.177001953125	-955.2373657226562	1259.170166015625	-568.8862915039062	-1237.149291992188	1174.1142578125	-518.8593139648438	-1179.278686523438	1444.429809570312	-517.4223022460938	-995.4535522460938	1371.486938476562	-566.0745239257812	-1219.371704101562	1324.300659179688	-413.9140014648438	-1227.456176757812	1395.04541015625	-608.5321655273438	-1143.7255859375	1423.357055664062	-707.125732421875	-1168.526123046875	1305.109741210938	-801.7088012695312	-1150.395751953125	1091.338134765625	-843.52587890625	-1214.070434570312	1074.482666015625	-763.849365234375	-1058.151611328125	891.33251953125	-821.5798950195312	-1114.8427734375	877.6278686523438	-868.0224609375	-1129.283447265625	1004.597534179688	-858.873291015625	-1052.9345703125	723.2479248046875	-838.9558715820312	-1105.252075195312	800.7852783203125	-875.4349365234375	-1040.226440429688	806.4555053710938	-841.8884887695312	-1082.810668945312	1420.818359375	-370.9515075683594	-1084.899047851562	1358.851440429688	-293.3961791992188	-1044.866577148438	1073.692626953125	-244.1704864501953	-1105.3583984375	1057.378784179688	-269.4147644042969	-957.5745849609375	867.4458618164062	-304.0382080078125	-1012.617553710938	853.5221557617188	-235.6571350097656	-1038.42236328125	1015.711853027344	-234.9081268310547	-953.1795654296875	710.8517456054688	-292.8386840820312	-938.2000732421875	769.95654296875	-291.6104125976562	-995.7015380859375	766.5105590820312	-239.9850616455078	-1104.774291992188	1645.090698242188	-446.32373046875	-984.659423828125	1673.628662109375	-612.7862548828125	-973.8642578125	1673.829223632812	-482.2955627441406	-1135.127685546875	1646.895141601562	-621.064697265625	-1116.371948242188	859.9778442382812	-730.995849609375	-1088.117919921875	863.3441772460938	-332.2767639160156	-990.3408813476562	900.94140625	-408.8774719238281	-1006.661987304688	896.0814208984375	-666.7347412109375	-1140.778686523438	443.3103332519531	-687.5004272460938	-1106.658081054688	592.6487426757812	-716.2802734375	-1224.541381835938	39.58499526977539	-658.6315307617188	-1157.152587890625	298.26025390625	-696.1713256835938	-980.2453002929688	43.47644424438477	-640.4110717773438	-1048.1181640625	51.91181945800781	-598.076904296875	-1077.067626953125	42.92905807495117	-708.7022705078125	-1252.470581054688	47.5666618347168	-585.4158325195312	-1087.648071289062	470.5657653808594	-356.2433166503906	-1048.992065429688	728.1997680664062	-323.763671875	-1152.107666015625	44.74964141845703	-337.2250366210938	-1090.644165039062	328.6197509765625	-342.8399658203125	-947.5162963867188	47.61846923828125	-421.5405578613281	-1014.713806152344	54.00019073486328	-445.0060729980469	-1016.260437011719	47.82413482666016	-336.5413208007812	-1223.705810546875	36.06440353393555	-372.67919921875	
73	0.72	-1216.691650390625	965.5037841796875	-459.9576721191406	-1233.421142578125	963.8995361328125	-599.8330078125	-1212.557373046875	1049.97216796875	-518.2576904296875	-955.0964965820312	1259.136474609375	-568.9400634765625	-1237.043212890625	1174.147827148438	-518.8958740234375	-1179.121337890625	1444.438598632812	-517.4249877929688	-995.2409057617188	1371.489135742188	-566.1390991210938	-1219.187866210938	1324.316528320312	-413.965087890625	-1227.309814453125	1395.06640625	-608.53857421875	-1143.581787109375	1423.373779296875	-707.1732177734375	-1168.371215820312	1305.108276367188	-801.7439575195312	-1150.2529296875	1091.291625976562	-843.4932250976562	-1213.959106445312	1074.456665039062	-763.8118286132812	-1058.087646484375	891.2847290039062	-821.4384765625	-1114.732543945312	877.5658569335938	-867.940673828125	-1129.086059570312	1004.561401367188	-858.78515625	-1052.682373046875	723.2584838867188	-838.8116455078125	-1105.071899414062	800.703125	-875.306396484375	-1040.089233398438	806.4396362304688	-841.7781982421875	-1082.611083984375	1420.797119140625	-370.9959716796875	-1084.687866210938	1358.822021484375	-293.4430236816406	-1044.490112304688	1073.660034179688	-244.2592468261719	-1105.009521484375	1057.330322265625	-269.4723510742188	-957.1719360351562	867.4945678710938	-304.1999206542969	-1012.113403320312	853.5484008789062	-235.7686309814453	-1038.034301757812	1015.687194824219	-235.0037536621094	-952.662841796875	710.8925170898438	-292.9994201660156	-937.7457275390625	770.0107421875	-291.7746276855469	-995.14453125	766.5226440429688	-240.13427734375	-1104.356201171875	1645.068969726562	-446.3243713378906	-984.4346313476562	1673.57666015625	-612.9478149414062	-973.5264282226562	1673.778198242188	-482.46728515625	-1134.981201171875	1646.91845703125	-621.0116577148438	-1116.293090820312	859.8650512695312	-731.0065307617188	-1088.116455078125	863.3461303710938	-332.3290405273438	-990.2837524414062	900.9483032226562	-408.9164428710938	-1006.599304199219	896.0721435546875	-666.7832641601562	-1140.735595703125	443.2924499511719	-687.55078125	-1106.577514648438	592.64013671875	-716.3518676757812	-1224.538818359375	39.58213424682617	-658.6314697265625	-1157.135009765625	298.2538452148438	-696.1878662109375	-980.244384765625	43.47533416748047	-640.4122924804688	-1048.119140625	51.91172027587891	-598.0780029296875	-1077.090698242188	42.93877792358398	-708.7162475585938	-1252.46337890625	47.58282089233398	-585.4148559570312	-1087.625	470.578857421875	-356.2956237792969	-1049.079467773438	728.2064819335938	-323.669189453125	-1152.107055664062	44.7562255859375	-337.2243957519531	-1090.635009765625	328.6314697265625	-342.879638671875	-947.5191650390625	47.61750793457031	-421.5456237792969	-1014.747009277344	54.01574325561523	-444.970703125	-1016.259094238281	47.81678771972656	-336.5392150878906	-1223.704345703125	36.07161331176758	-372.6970825195312	
